<svg xmlns="http://www.w3.org/2000/svg" width="1120" height="520" viewBox="0 0 1120 520" role="img" aria-label="Aurora market network preview">
  <rect width="1120" height="520" fill="#0b1220"/>
  <text x="58" y="62" fill="#f8fafc" font-family="Inter,Segoe UI,Arial" font-size="30" font-weight="700">Aurora Market Network Explorer</text>
  <text x="58" y="94" fill="#94a3b8" font-family="Inter,Segoe UI,Arial" font-size="16">Correlation thresholding, graph structure, and cluster inspection</text>
  <g stroke="#334155" stroke-width="3">
    <line x1="310" y1="210" x2="470" y2="170"/><line x1="310" y1="210" x2="520" y2="300"/><line x1="470" y1="170" x2="520" y2="300"/>
    <line x1="650" y1="180" x2="780" y2="260"/><line x1="650" y1="180" x2="710" y2="360"/><line x1="780" y1="260" x2="710" y2="360"/>
    <line x1="520" y1="300" x2="650" y2="180" stroke="#1d4ed8"/>
  </g>
  <g font-family="Inter,Segoe UI,Arial" font-weight="700" text-anchor="middle">
    <circle cx="310" cy="210" r="42" fill="#2563eb"/><text x="310" y="216" fill="#fff">SPY</text>
    <circle cx="470" cy="170" r="42" fill="#3b82f6"/><text x="470" y="176" fill="#fff">QQQ</text>
    <circle cx="520" cy="300" r="42" fill="#60a5fa"/><text x="520" y="306" fill="#0f172a">NVDA</text>
    <circle cx="650" cy="180" r="42" fill="#16a34a"/><text x="650" y="186" fill="#fff">XOM</text>
    <circle cx="780" cy="260" r="42" fill="#22c55e"/><text x="780" y="266" fill="#052e16">XLE</text>
    <circle cx="710" cy="360" r="42" fill="#84cc16"/><text x="710" y="366" fill="#1a2e05">GLD</text>
  </g>
  <rect x="62" y="150" width="140" height="180" rx="8" fill="#111827" stroke="#334155"/>
  <text x="82" y="184" fill="#f8fafc" font-family="Inter,Segoe UI,Arial" font-size="15" font-weight="700">Controls</text>
  <text x="82" y="220" fill="#cbd5e1" font-family="Inter,Segoe UI,Arial" font-size="13">threshold: 0.60</text>
  <text x="82" y="248" fill="#cbd5e1" font-family="Inter,Segoe UI,Arial" font-size="13">nodes: 6</text>
  <text x="82" y="276" fill="#cbd5e1" font-family="Inter,Segoe UI,Arial" font-size="13">clusters: 2</text>
</svg>

